<svg id="Layer_1" height="512" viewBox="0 0 128 128" width="512" xmlns="http://www.w3.org/2000/svg" data-name="Layer 1"><path d="m93.75 115h-77.667v-102h63.584l14.083 14.083z" fill="#ececf1"/><path d="m93.75 27.083h-14.083v-14.083z" fill="#d3d3d8"/><circle cx="54.917" cy="43.633" fill="#fed943" r="20.367"/><g fill="#3f5959"><path d="m30.337 73.924h36.58a1.75 1.75 0 0 0 0-3.5h-36.58a1.75 1.75 0 0 0 0 3.5z"/><path d="m30.337 84.417h21.916a1.75 1.75 0 1 0 0-3.5h-21.916a1.75 1.75 0 0 0 0 3.5z"/><path d="m66.917 91.41h-36.58a1.75 1.75 0 0 0 0 3.5h36.58a1.75 1.75 0 0 0 0-3.5z"/><path d="m52.253 101.9h-21.916a1.75 1.75 0 0 0 0 3.5h21.916a1.75 1.75 0 0 0 0-3.5z"/></g><path d="m93.75 61.149c-1.85 3.964-10.45 6.507-18.167 3.977v23s0 7.3 8.15 11.592c8.748 4.608 10.017 7.219 10.017 7.219s1.269-2.611 10.017-7.219c8.15-4.293 8.15-11.592 8.15-11.592v-23c-7.717 2.53-16.317-.013-18.167-3.977z" fill="#6ae1db"/><path d="m56.667 42.1v-7.231a3.718 3.718 0 0 1 2 3.283 1.75 1.75 0 0 0 3.5 0 7.238 7.238 0 0 0 -5.5-7.012v-2.34a1.75 1.75 0 0 0 -3.5 0v2.347a7.22 7.22 0 0 0 0 14.008v7.225a3.719 3.719 0 0 1 -1.967-3.265 1.75 1.75 0 0 0 -3.5 0 7.238 7.238 0 0 0 5.466 7v2.347a1.75 1.75 0 1 0 3.5 0v-2.335a7.221 7.221 0 0 0 0-14.025zm-5.467-3.948a3.719 3.719 0 0 1 1.966-3.266v6.533a3.721 3.721 0 0 1 -1.966-3.267zm5.467 14.248v-6.569a3.7 3.7 0 0 1 0 6.567z" fill="#fd9025"/><path d="m93.749 88.25a1.741 1.741 0 0 1 -.862-.228l-4.333-2.458a1.75 1.75 0 1 1 1.726-3.044l3.035 1.722 6.4-8a1.75 1.75 0 1 1 2.732 2.187l-7.333 9.166a1.746 1.746 0 0 1 -1.365.655z" fill="#ececf1"/></svg>