<svg id="Capa_1" enable-background="new 0 0 512 512" height="512" viewBox="0 0 512 512" width="512" xmlns="http://www.w3.org/2000/svg"><g><g><g><circle cx="76.149" cy="308.945" fill="#61a2f9" r="7.5"/></g><g><circle cx="60.376" cy="281.133" fill="#61a2f9" r="7.5"/></g><g><circle cx="51.25" cy="250.157" fill="#61a2f9" r="7.5"/></g><g><circle cx="49.903" cy="217.889" fill="#61a2f9" r="7.5"/></g><g><circle cx="56.004" cy="185.62" fill="#61a2f9" r="7.5"/></g><g><circle cx="68.643" cy="156.442" fill="#61a2f9" r="7.5"/></g><g><circle cx="86.77" cy="129.675" fill="#61a2f9" r="7.5"/></g><g><circle cx="164.433" cy="72.993" fill="#61a2f9" r="7.5"/></g><g><circle cx="194.737" cy="63.229" fill="#61a2f9" r="7.5"/></g><g><circle cx="227.239" cy="58.476" fill="#61a2f9" r="7.5"/></g><g><circle cx="259.567" cy="59.137" fill="#61a2f9" r="7.5"/></g><g><circle cx="291.264" cy="65.489" fill="#61a2f9" r="7.5"/></g><g><circle cx="321.174" cy="77.741" fill="#61a2f9" r="7.5"/></g></g><g><circle cx="254.26" cy="259.816" fill="#bed8fb" r="168.864"/></g><g><path d="m254.26 90.952c-11.046 0-21.839 1.073-32.293 3.098 77.811 15.071 136.57 83.551 136.57 165.766s-58.759 150.695-136.57 165.766c10.454 2.025 21.248 3.098 32.293 3.098 93.261 0 168.864-75.603 168.864-168.864s-75.603-168.864-168.864-168.864z" fill="#9dc6fb"/></g><g><path d="m207.069 220.727-18.226 25.746c-8.78 12.403-5.844 29.576 6.56 38.357l4.632 3.279c7.579 5.365 11.94 14.191 11.599 23.47l-2.67 72.59c-.213 5.799 2.504 11.317 7.231 14.683 5.928 4.221 13.868 4.267 19.845.115l49.93-34.688c7.234-5.025 13.536-11.273 18.625-18.462l32.172-45.447c6.93-9.789 4.612-23.343-5.177-30.272l-80.399-56.916c-14.268-10.101-34.022-6.722-44.122 7.545z" fill="#9bd069"/></g><g><path d="m243.947 107.171c-3.91-4.483-4.454-10.794-1.765-15.784-29.222 2.066-56.388 11.564-79.623 26.62l-23.662 23.662c-6.131 6.132-9.576 14.448-9.576 23.119v26.357c0 6.844 7.691 10.867 13.313 6.964l19.442-13.498c6.323-4.39 13.837-6.743 21.535-6.743h25.021c8.198 0 16.06-3.257 21.856-9.053l24.691-24.691c6.313-6.313 6.658-16.437.79-23.165z" fill="#9bd069"/></g><g><path d="m366.53 133.693-9.666 33.644c-3.802 13.234-2.793 27.387 2.849 39.948l10.554 23.496c4.787 10.656 15.381 17.512 27.064 17.512 5.897 0 11.66-1.757 16.553-5.047l7.836-5.268c-5.333-41.303-25.594-77.92-55.19-104.285z" fill="#80b4fb"/></g><g><path d="m366.53 133.693-9.666 33.644c-3.802 13.234-2.793 27.387 2.849 39.948l10.554 23.496c4.787 10.656 15.381 17.512 27.064 17.512 5.897 0 11.66-1.757 16.553-5.047l7.836-5.268c-5.333-41.303-25.594-77.92-55.19-104.285z" fill="#69af81"/></g><g><path d="m410.677 98.564c-1.664 25.861-22.122 56.793-30.922 69-1.971 2.733-6.029 2.742-8.02.024-9.209-12.569-30.975-45.155-30.975-72.362 0-19.625 16.147-35.479 35.88-35.002 20.171.487 35.332 18.205 34.037 38.34z" fill="#ffe541"/></g><g><path d="m376.64 60.223c-4.537-.11-8.881.653-12.886 2.117 14.359 5.324 24.022 19.984 22.977 36.223-1.266 19.673-13.404 42.271-23.016 57.338 3.063 4.759 5.881 8.767 8.02 11.686 1.992 2.718 6.049 2.709 8.02-.024 8.8-12.207 29.258-43.138 30.922-69 1.295-20.134-13.866-37.852-34.037-38.34z" fill="#ffc50d"/></g><g><circle cx="375.772" cy="96.54" fill="#f9f6f6" r="17.132"/></g><g><path d="m379.084 79.732c3.204 3.113 5.197 7.465 5.197 12.285 0 9.462-7.67 17.132-17.132 17.132-1.133 0-2.24-.113-3.312-.323 3.085 2.998 7.293 4.847 11.935 4.847 9.462 0 17.132-7.67 17.132-17.132 0-8.329-5.944-15.266-13.82-16.809z" fill="#eedfda"/></g><g><g><g><path d="m62.009 6.385 14.094-6.155c.653-.285 1.391-.305 2.058-.055l72.202 27.01-38.633 16.872-49.901-35.996c-.609-.44-.509-1.376.18-1.676z" fill="#eedfda"/></g><g><path d="m78.161.174c-.667-.25-1.406-.23-2.059.055l-13.922 6.081c.653-.285 1.391-.305 2.059-.055l72.202 27.01 13.922-6.08z" fill="#c9beb9"/></g><g><path d="m181.156 14.305-14.262.375c-1.957.051-3.886.481-5.681 1.265l-57.821 25.253c-.274.12-.538.259-.791.417l-22.203 14.65-22.745-5.367c-.338-.08-.693-.048-1.011.091l-7.93 3.463c-.779.34-.869 1.41-.158 1.876l20.007 13.097-3.99 23.577c-.142.838.704 1.499 1.483 1.159l7.93-3.463c.318-.139.583-.377.754-.679l11.521-20.332 25.836-6.331c.288-.078.57-.177.844-.297l57.821-25.253c1.794-.784 3.42-1.907 4.788-3.308l9.967-10.207c3.69-3.778.918-10.124-4.359-9.986z" fill="#eedfda"/></g><g><path d="m181.156 14.305-4.017.106c.702 1.967.393 4.301-1.336 6.071l-9.967 10.207c-1.368 1.401-2.994 2.524-4.788 3.308l-57.821 25.253c-.274.119-.556.219-.844.297l-25.836 6.331-10.529 18.581-1.446 8.543c-.142.838.704 1.499 1.483 1.159l7.93-3.463c.318-.139.583-.377.754-.679l11.521-20.332 25.836-6.331c.288-.078.57-.177.844-.297l57.821-25.253c1.794-.784 3.42-1.907 4.788-3.308l9.967-10.207c3.689-3.778.917-10.124-4.36-9.986z" fill="#c9beb9"/></g><g><path d="m108.029 121.304 14.094-6.155c.653-.285 1.169-.813 1.44-1.472l29.256-71.321-36.735 16.044c-1.176.514-1.993 1.61-2.15 2.884l-7.256 59.014c-.092.744.663 1.307 1.351 1.006z" fill="#eedfda"/></g><g><path d="m138.897 48.435-29.256 71.321c-.27.659-.787 1.187-1.44 1.472l13.922-6.08c.653-.285 1.169-.813 1.44-1.472l29.256-71.321z" fill="#c9beb9"/></g></g></g><g><g><g><path d="m375.757 300.23c-10.648 15.915-41.101 27.464-77.168 27.726v65.361c0 27.857 12.876 54.15 34.883 71.23l37.577 29.164c2.77 2.15 6.645 2.15 9.416 0l37.577-29.164c22.007-17.08 34.883-43.373 34.883-71.23v-65.361c-36.067-.262-66.52-11.811-77.168-27.726z" fill="#f9f6f6"/></g><g><g><path d="m408.171 321.125v57.843c0 27.857-12.876 54.15-34.883 71.23l-29.152 22.625 26.914 20.888c2.77 2.15 6.645 2.15 9.416 0l37.577-29.164c22.007-17.08 34.883-43.373 34.883-71.23v-65.361c-16.561-.12-31.936-2.621-44.755-6.831z" fill="#eedfda"/></g></g><g><g><path d="m375.757 512c-5.268 0-10.534-1.705-14.93-5.116l-37.577-29.164c-12.794-9.931-23.322-22.867-30.445-37.412s-10.888-30.794-10.888-46.99v-76.784c0-2.839 2.29-5.146 5.129-5.167l11.422-.083c32.526-.236 52.821-9.714 63.432-20.325 2.479-2.479 4.556-4.931 6.284-7.232 3.808-5.072 11.418-5.077 15.201.012 1.73 2.327 3.793 4.783 6.229 7.219 10.175 10.175 30.907 20.089 63.432 20.325l11.422.083c2.839.021 5.129 2.328 5.129 5.167v76.784c0 16.196-3.765 32.444-10.888 46.99-7.123 14.545-17.651 27.482-30.446 37.412l-37.577 29.164c-4.394 3.411-9.662 5.117-14.929 5.117zm-63.684-174.169c-1.658.187-2.908 1.595-2.908 3.263v51.583c0 25.178 11.408 48.472 31.298 63.91l33.277 25.827c1.186.921 2.846.921 4.032 0l33.277-25.827c19.89-15.437 31.298-38.731 31.298-63.91v-51.583c0-1.668-1.25-3.076-2.908-3.263-13.602-1.535-26.483-4.458-37.996-8.659-7.824-2.855-14.845-6.246-20.953-10.095-2.899-1.827-6.57-1.827-9.469 0-6.108 3.849-13.129 7.24-20.953 10.095-11.512 4.201-24.393 7.124-37.995 8.659z" fill="#766e6e"/></g></g><g><g><path d="m464.468 311.367-11.422-.083c-10.151-.074-19.153-1.09-27.044-2.763v27.293c4.382.825 8.868 1.501 13.438 2.017 1.658.187 2.908 1.595 2.908 3.263v51.583c0 25.178-11.408 48.472-31.298 63.91l-33.277 25.827c-1.186.921-2.846.921-4.032 0l-8.158-6.332-21.809 16.926c-.139.108-.281.209-.422.313l17.474 13.562c4.396 3.411 9.662 5.116 14.93 5.116 5.267 0 10.535-1.706 14.93-5.117l37.577-29.164c12.794-9.93 23.322-22.867 30.446-37.412 7.123-14.545 10.888-30.794 10.888-46.989v-76.784c.001-2.838-2.29-5.145-5.129-5.166z" fill="#5b5353"/></g></g></g><g><path d="m370.927 425.362c-.017 0-.035 0-.052 0-2.317-.016-4.496-1.101-5.904-2.941l-24.046-31.399c-2.519-3.289-1.895-7.998 1.395-10.517 3.289-2.518 7.998-1.895 10.517 1.395l18.175 23.732 37.388-47.445c2.564-3.254 7.282-3.813 10.535-1.249 3.254 2.564 3.813 7.281 1.249 10.535l-43.364 55.03c-1.423 1.806-3.595 2.859-5.893 2.859z" fill="#9bd069"/></g></g></g></svg>