<svg xmlns="http://www.w3.org/2000/svg" width="70.911" height="77.248" viewBox="0 0 70.911 77.248">
  <g id="insurance" transform="translate(-21.001)">
    <g id="Group_3" data-name="Group 3" transform="translate(21.001 0)">
      <path id="Path_161" data-name="Path 161" d="M111,2.263V19.916l10.561-9.2V2.263A2.263,2.263,0,0,0,119.3,0h-6.035A2.263,2.263,0,0,0,111,2.263Z" transform="translate(-97.421 0)" fill="#c8661c"/>
      <path id="Path_162" data-name="Path 162" d="M103.158,7,76,29.028V67.954a2.263,2.263,0,0,0,2.263,2.263h49.789a2.263,2.263,0,0,0,2.263-2.263V29.028Z" transform="translate(-67.702 -5.944)" fill="#f5f5ff"/>
      <path id="Path_163" data-name="Path 163" d="M280.894,70.217a2.263,2.263,0,0,0,2.263-2.263V29.028L256,7V70.217Z" transform="translate(-220.544 -5.944)" fill="#e2e7fa"/>
      <path id="Path_164" data-name="Path 164" d="M89.647,31.081a2.253,2.253,0,0,1-1.412-.5L56.456,5.162,24.677,30.585a2.263,2.263,0,1,1-2.828-3.534L55.043.5A2.263,2.263,0,0,1,57.87.5L91.063,27.051a2.263,2.263,0,0,1-1.415,4.03Z" transform="translate(-21.001 -0.001)" fill="#d8aa5c"/>
      <path id="Path_165" data-name="Path 165" d="M287.779,30.584a2.263,2.263,0,0,0,2.828-3.534L257.414.5A2.258,2.258,0,0,0,256,0V5.161Z" transform="translate(-220.544 0)" fill="#c8661c"/>
      <path id="Path_166" data-name="Path 166" d="M226.281,100.561a5.281,5.281,0,1,1,5.281-5.281A5.287,5.287,0,0,1,226.281,100.561Z" transform="translate(-190.825 -76.421)" fill="#9ddff6"/>
      <path id="Path_167" data-name="Path 167" d="M261.281,95.281A5.287,5.287,0,0,0,256,90v10.561A5.287,5.287,0,0,0,261.281,95.281Z" transform="translate(-220.544 -76.421)" fill="#6ba7ff"/>
    </g>
    <g id="Group_4" data-name="Group 4" transform="translate(39.106 33.494)">
      <path id="Path_168" data-name="Path 168" d="M158.351,265.754a2.262,2.262,0,0,1-.65-.1A23.434,23.434,0,0,1,141,243.213V230.3a2.263,2.263,0,0,1,2.263-2.263,7.461,7.461,0,0,0,6.71-4.147l.318-.637A2.263,2.263,0,0,1,152.316,222h12.07a2.263,2.263,0,0,1,2.024,1.251l.318.637a7.461,7.461,0,0,0,6.71,4.147A2.263,2.263,0,0,1,175.7,230.3v12.914A23.434,23.434,0,0,1,159,265.658,2.262,2.262,0,0,1,158.351,265.754Z" transform="translate(-141 -222)" fill="#9ddff6"/>
      <path id="Path_169" data-name="Path 169" d="M271.088,228.035a7.461,7.461,0,0,1-6.71-4.147l-.318-.637A2.263,2.263,0,0,0,262.035,222H256v43.754a2.262,2.262,0,0,0,.65-.1,23.434,23.434,0,0,0,16.7-22.446V230.3A2.263,2.263,0,0,0,271.088,228.035Z" transform="translate(-238.649 -222)" fill="#6ba7ff"/>
      <path id="Path_170" data-name="Path 170" d="M171,257.824v10.862a18.785,18.785,0,0,0,12.824,17.9,18.785,18.785,0,0,0,12.824-17.9V257.824A11.941,11.941,0,0,1,188.483,252h-9.317A11.941,11.941,0,0,1,171,257.824Z" transform="translate(-166.474 -247.474)" fill="#f5f5ff"/>
      <path id="Path_171" data-name="Path 171" d="M260.658,252H256v34.589a18.785,18.785,0,0,0,12.824-17.9V257.824A11.94,11.94,0,0,1,260.658,252Z" transform="translate(-238.649 -247.474)" fill="#e2e7fa"/>
      <path id="Path_172" data-name="Path 172" d="M205.1,336.777a2.255,2.255,0,0,1-1.6-.663l-4.267-4.267a2.263,2.263,0,1,1,3.2-3.2l2.667,2.667,6.935-6.934a2.263,2.263,0,1,1,3.2,3.2l-8.535,8.535A2.256,2.256,0,0,1,205.1,336.777Z" transform="translate(-189.888 -308.369)" fill="#6b61b1"/>
      <path id="Path_173" data-name="Path 173" d="M260.8,324.378l-4.8,4.8v6.4l8-8a2.263,2.263,0,1,0-3.2-3.2Z" transform="translate(-238.649 -308.369)" fill="#453d81"/>
    </g>
  </g>
</svg>
